HIERARCHY
ROOT Hips
{
	OFFSET 0.000000 100.481300 0.000000
	CHANNELS 6 Xposition Yposition Zposition Xrotation Yrotation Zrotation 
	JOINT Spine
	{
		OFFSET -0.279200 12.230698 -2.892100
		CHANNELS 3 Xrotation Yrotation Zrotation
		JOINT Spine1
		{
			OFFSET -0.232667 10.192268 -1.242267
			CHANNELS 3 Xrotation Yrotation Zrotation
			JOINT Spine1_split
			{
				OFFSET -0.232667 10.192268 -1.242267
				CHANNELS 3 Xrotation Yrotation Zrotation
				JOINT Spine2
				{
					OFFSET -0.232667 10.192268 -1.242267
					CHANNELS 3 Xrotation Yrotation Zrotation
					JOINT Neck
					{
						OFFSET -0.418800 17.814194 8.416900
						CHANNELS 3 Xrotation Yrotation Zrotation
						JOINT Head
						{
							OFFSET 0.000000 7.031097 3.806800
							CHANNELS 3 Xrotation Yrotation Zrotation
							JOINT HeadTop_End
							{
								OFFSET 0.000000 24.646606 12.978600
								CHANNELS 3 Xrotation Yrotation Zrotation
								End Site
								{
									OFFSET 0.000000 0.000000 0.000000
								}
							}
						}
					}
					JOINT LeftShoulder
					{
						OFFSET 8.476499 7.247704 -3.868750
						CHANNELS 3 Xrotation Yrotation Zrotation
						JOINT LeftShoulder_split
						{
							OFFSET 8.476499 7.247704 -3.868750
							CHANNELS 3 Xrotation Yrotation Zrotation
							JOINT LeftArm
							{
								OFFSET 9.308998 -2.777710 0.208600
								CHANNELS 3 Xrotation Yrotation Zrotation
								JOINT LeftForeArm
								{
									OFFSET 29.972298 0.000000 0.000000
									CHANNELS 3 Xrotation Yrotation Zrotation
									JOINT LeftHand
									{
										OFFSET 26.026505 0.000000 0.000000
										CHANNELS 3 Xrotation Yrotation Zrotation
										JOINT LeftHandThumb1
										{
											OFFSET 12.240501 -7.147949 9.207150
											CHANNELS 3 Xrotation Yrotation Zrotation
											JOINT LeftHandThumb2
											{
												OFFSET 4.138618 -2.389435 2.389433
												CHANNELS 3 Xrotation Yrotation Zrotation
												JOINT LeftHandThumb3
												{
													OFFSET 2.726913 -1.574387 1.574386
													CHANNELS 3 Xrotation Yrotation Zrotation
													JOINT LeftHandThumb4
													{
														OFFSET 3.941010 -2.275345 2.275342
														CHANNELS 3 Xrotation Yrotation Zrotation
														End Site
														{
															OFFSET 0.000000 0.000000 0.000000
														}
													}
												}
											}
										}
										JOINT LeftHandIndex1
										{
											OFFSET 24.424698 -1.985611 5.953459
											CHANNELS 3 Xrotation Yrotation Zrotation
											JOINT LeftHandIndex2
											{
												OFFSET 6.426697 0.000000 0.000000
												CHANNELS 3 Xrotation Yrotation Zrotation
												JOINT LeftHandIndex3
												{
													OFFSET 5.337898 0.000000 0.000000
													CHANNELS 3 Xrotation Yrotation Zrotation
													JOINT LeftHandIndex4
													{
														OFFSET 4.409401 0.000000 0.000000
														CHANNELS 3 Xrotation Yrotation Zrotation
														End Site
														{
															OFFSET 0.000000 0.000000 0.000000
														}
													}
												}
											}
										}
										JOINT LeftHandMiddle1
										{
											OFFSET 23.810104 0.000000 0.000000
											CHANNELS 3 Xrotation Yrotation Zrotation
											JOINT LeftHandMiddle2
											{
												OFFSET 7.176498 0.000000 0.000000
												CHANNELS 3 Xrotation Yrotation Zrotation
												JOINT LeftHandMiddle3
												{
													OFFSET 6.774902 0.000000 0.000000
													CHANNELS 3 Xrotation Yrotation Zrotation
													JOINT LeftHandMiddle4
													{
														OFFSET 5.403328 0.000000 0.000000
														CHANNELS 3 Xrotation Yrotation Zrotation
														End Site
														{
															OFFSET 0.000000 0.000000 0.000000
														}
													}
												}
											}
										}
										JOINT LeftHandRing1
										{
											OFFSET 22.908401 -0.839279 -6.020567
											CHANNELS 3 Xrotation Yrotation Zrotation
											JOINT LeftHandRing2
											{
												OFFSET 6.337502 0.000000 0.000000
												CHANNELS 3 Xrotation Yrotation Zrotation
												JOINT LeftHandRing3
												{
													OFFSET 5.779297 0.000000 0.000000
													CHANNELS 3 Xrotation Yrotation Zrotation
													JOINT LeftHandRing4
													{
														OFFSET 4.965698 0.000000 0.000000
														CHANNELS 3 Xrotation Yrotation Zrotation
														End Site
														{
															OFFSET 0.000000 0.000000 0.000000
														}
													}
												}
											}
										}
										JOINT LeftHandPinky1
										{
											OFFSET 20.037003 -1.530319 -10.950146
											CHANNELS 3 Xrotation Yrotation Zrotation
											JOINT LeftHandPinky2
											{
												OFFSET 5.254700 0.000000 0.000000
												CHANNELS 3 Xrotation Yrotation Zrotation
												JOINT LeftHandPinky3
												{
													OFFSET 4.810204 0.000000 0.000000
													CHANNELS 3 Xrotation Yrotation Zrotation
													JOINT LeftHandPinky4
													{
														OFFSET 3.647202 0.000000 0.000000
														CHANNELS 3 Xrotation Yrotation Zrotation
														End Site
														{
															OFFSET 0.000000 0.000000 0.000000
														}
													}
												}
											}
										}
									}
								}
							}
						}
					}
					JOINT RightShoulder
					{
						OFFSET -7.570500 7.247704 -3.868750
						CHANNELS 3 Xrotation Yrotation Zrotation
						JOINT RightShoulder_split
						{
							OFFSET -7.570500 7.247704 -3.868750
							CHANNELS 3 Xrotation Yrotation Zrotation
							JOINT RightArm
							{
								OFFSET -9.308998 -2.777710 0.208500
								CHANNELS 3 Xrotation Yrotation Zrotation
								JOINT RightForeArm
								{
									OFFSET -29.972300 0.000000 0.000000
									CHANNELS 3 Xrotation Yrotation Zrotation
									JOINT RightHand
									{
										OFFSET -26.026505 0.000000 0.000000
										CHANNELS 3 Xrotation Yrotation Zrotation
										JOINT RightHandThumb1
										{
											OFFSET -12.240601 -7.148026 9.207092
											CHANNELS 3 Xrotation Yrotation Zrotation
											JOINT RightHandThumb2
											{
												OFFSET -4.138618 -2.389435 2.389433
												CHANNELS 3 Xrotation Yrotation Zrotation
												JOINT RightHandThumb3
												{
													OFFSET -2.726974 -1.574417 1.574421
													CHANNELS 3 Xrotation Yrotation Zrotation
													JOINT RightHandThumb4
													{
														OFFSET -3.941010 -2.275345 2.275343
														CHANNELS 3 Xrotation Yrotation Zrotation
														End Site
														{
															OFFSET 0.000000 0.000000 0.000000
														}
													}
												}
											}
										}
										JOINT RightHandIndex1
										{
											OFFSET -24.424698 -1.985657 5.953444
											CHANNELS 3 Xrotation Yrotation Zrotation
											JOINT RightHandIndex2
											{
												OFFSET -6.426697 0.000000 0.000000
												CHANNELS 3 Xrotation Yrotation Zrotation
												JOINT RightHandIndex3
												{
													OFFSET -5.337898 0.000000 0.000000
													CHANNELS 3 Xrotation Yrotation Zrotation
													JOINT RightHandIndex4
													{
														OFFSET -4.409401 0.000000 0.000000
														CHANNELS 3 Xrotation Yrotation Zrotation
														End Site
														{
															OFFSET 0.000000 0.000000 0.000000
														}
													}
												}
											}
										}
										JOINT RightHandMiddle1
										{
											OFFSET -23.810097 0.000000 0.000000
											CHANNELS 3 Xrotation Yrotation Zrotation
											JOINT RightHandMiddle2
											{
												OFFSET -7.176498 0.000000 0.000000
												CHANNELS 3 Xrotation Yrotation Zrotation
												JOINT RightHandMiddle3
												{
													OFFSET -6.774902 0.000000 0.000000
													CHANNELS 3 Xrotation Yrotation Zrotation
													JOINT RightHandMiddle4
													{
														OFFSET -5.403328 0.000000 0.000000
														CHANNELS 3 Xrotation Yrotation Zrotation
														End Site
														{
															OFFSET 0.000000 0.000000 0.000000
														}
													}
												}
											}
										}
										JOINT RightHandRing1
										{
											OFFSET -22.908302 -0.839325 -6.020576
											CHANNELS 3 Xrotation Yrotation Zrotation
											JOINT RightHandRing2
											{
												OFFSET -6.337502 0.000000 0.000000
												CHANNELS 3 Xrotation Yrotation Zrotation
												JOINT RightHandRing3
												{
													OFFSET -5.779297 0.000000 0.000000
													CHANNELS 3 Xrotation Yrotation Zrotation
													JOINT RightHandRing4
													{
														OFFSET -4.965698 0.000000 0.000000
														CHANNELS 3 Xrotation Yrotation Zrotation
														End Site
														{
															OFFSET 0.000000 0.000000 0.000000
														}
													}
												}
											}
										}
										JOINT RightHandPinky1
										{
											OFFSET -20.037003 -1.530334 -10.950259
											CHANNELS 3 Xrotation Yrotation Zrotation
											JOINT RightHandPinky2
											{
												OFFSET -5.254700 0.000000 0.000000
												CHANNELS 3 Xrotation Yrotation Zrotation
												JOINT RightHandPinky3
												{
													OFFSET -4.810204 0.000000 0.000000
													CHANNELS 3 Xrotation Yrotation Zrotation
													JOINT RightHandPinky4
													{
														OFFSET -3.647202 0.000000 0.000000
														CHANNELS 3 Xrotation Yrotation Zrotation
														End Site
														{
															OFFSET 0.000000 0.000000 0.000000
														}
													}
												}
											}
										}
									}
								}
							}
						}
					}
				}
			}
		}
	}
	JOINT LeftUpLeg
	{
		OFFSET 15.427100 -6.655098 0.678600
		CHANNELS 3 Xrotation Yrotation Zrotation
		JOINT LeftLeg
		{
			OFFSET 4.081073 -39.591068 13.024000
			CHANNELS 3 Xrotation Yrotation Zrotation
			JOINT LeftFoot
			{
				OFFSET -4.081074 -37.707932 -15.979700
				CHANNELS 3 Xrotation Yrotation Zrotation
				JOINT LeftToeBase
				{
					OFFSET 5.346399 -15.068900 20.645000
					CHANNELS 3 Xrotation Yrotation Zrotation
					JOINT LeftToe_End
					{
						OFFSET 2.754700 0.931300 11.300900
						CHANNELS 3 Xrotation Yrotation Zrotation
						End Site
						{
							OFFSET 0.000000 0.000000 0.000000
						}
					}
				}
			}
		}
	}
	JOINT RightUpLeg
	{
		OFFSET -15.569500 -6.655098 0.678600
		CHANNELS 3 Xrotation Yrotation Zrotation
		JOINT RightLeg
		{
			OFFSET -4.081825 -39.591045 13.023800
			CHANNELS 3 Xrotation Yrotation Zrotation
			JOINT RightFoot
			{
				OFFSET 4.081824 -37.707954 -15.979600
				CHANNELS 3 Xrotation Yrotation Zrotation
				JOINT RightToeBase
				{
					OFFSET -5.346400 -15.068900 20.645000
					CHANNELS 3 Xrotation Yrotation Zrotation
					JOINT RightToe_End
					{
						OFFSET -2.754700 0.931300 11.300900
						CHANNELS 3 Xrotation Yrotation Zrotation
						End Site
						{
							OFFSET 0.000000 0.000000 0.000000
						}
					}
				}
			}
		}
	}
}
MOTION
Frames: 6
Frame Time: 0.016667
-0.048385 212.988190 -0.627635 -4.544941 4.736335 5.034081 4.634785 -0.603763 0.490605 9.932387 -0.680239 3.008161 0.000000 0.000000 0.000000 9.936599 -0.617924 3.002060 -0.494627 1.768445 -5.437060 5.110716 1.939356 -6.547526 0.000001 -0.000001 -0.000000 -0.221755 14.341900 -11.465860 0.000000 0.000000 0.000000 4.441021 -10.208758 -60.164493 0.000006 -50.304439 0.000012 20.413450 -0.668131 -4.134520 -3.500355 23.141803 9.972875 -2.408845 12.775488 10.381859 -3.572553 4.191480 6.966299 0.000001 0.000000 -0.000001 0.080925 1.054710 -8.775020 0.139266 1.380644 -11.520075 0.034903 0.693818 -5.759201 0.000003 0.000000 -0.000001 0.080625 1.052808 -8.759033 0.139667 1.382524 -11.536061 0.034901 0.693820 -5.759195 -0.000003 -0.000000 -0.000000 0.080925 1.054710 -8.775019 0.139269 1.380644 -11.520072 0.034909 0.693811 -5.759200 0.000003 -0.000000 -0.000000 0.683437 5.064125 -8.296779 0.133614 -2.674901 -12.020563 0.034894 0.693817 -5.759204 -0.000004 -0.000000 -0.000000 1.119627 3.440111 7.346925 0.000000 0.000000 0.000000 -5.089676 8.252985 56.488441 0.000009 38.764544 -0.000012 3.115015 -7.514419 -6.985636 -7.604780 -2.521695 -16.076744 4.602801 -15.232179 -8.617176 -1.023798 -3.032480 -6.344381 -0.000001 0.000000 -0.000004 0.672565 -2.988256 25.363091 0.151854 -1.448112 11.972162 0.038063 -0.728029 5.985119 -0.000000 -0.000000 0.000000 0.672568 -2.988255 25.363093 0.151858 -1.448114 11.972158 0.038061 -0.728028 5.985124 0.000001 0.000001 0.000002 0.672565 -2.988254 25.363100 0.151859 -1.448114 11.972158 0.038065 -0.728030 5.985118 0.000002 0.000001 0.000001 0.672567 -2.988255 25.363093 0.151856 -1.448115 11.972158 0.038068 -0.728028 5.985121 0.000003 0.000000 0.000002 -7.464066 16.364430 6.835991 12.508481 -7.617123 -0.357872 -2.279514 0.252575 -5.689540 -0.000000 0.000002 0.000002 0.000000 0.000000 0.000000 0.556115 -10.698295 -5.114358 19.700014 5.630297 0.205812 -24.946591 -0.927694 3.936119 0.000000 -0.000001 -0.000000 0.000000 0.000000 -0.000000 
-0.048941 212.918930 -0.672515 -4.294922 4.749448 4.988015 4.606557 -0.606280 0.528258 9.886748 -0.664537 3.002675 0.000000 0.000000 0.000000 9.891313 -0.602347 2.995067 -0.542379 1.841334 -5.558722 5.225233 2.094418 -6.610317 0.000003 -0.000000 0.000000 -0.219942 14.506514 -11.612864 0.000000 0.000000 0.000000 4.361428 -10.445361 -59.944677 -0.000000 -50.526314 0.000011 20.043443 -0.258922 -4.095667 -3.500344 23.141789 9.972877 -2.408848 12.775500 10.381864 -3.572555 4.191479 6.966305 0.000000 -0.000000 0.000000 0.080933 1.054708 -8.775014 0.139276 1.380635 -11.520077 0.034895 0.693817 -5.759189 0.000004 0.000000 -0.000000 0.080632 1.052806 -8.759047 0.139663 1.382520 -11.536061 0.034898 0.693822 -5.759175 0.000000 -0.000001 0.000000 0.080933 1.054708 -8.775013 0.139273 1.380636 -11.520072 0.034900 0.693819 -5.759185 -0.000003 0.000000 -0.000000 0.683438 5.064149 -8.296754 0.133611 -2.674923 -12.020563 0.034901 0.693825 -5.759185 0.000002 -0.000001 0.000001 1.111068 3.468512 7.163202 0.000000 0.000000 0.000000 -4.424846 9.153712 56.002811 0.000017 39.178634 -0.000032 2.112969 -7.565651 -7.684068 -7.604775 -2.521695 -16.076756 4.602802 -15.232184 -8.617181 -1.023798 -3.032480 -6.344375 0.000000 0.000001 -0.000002 0.672567 -2.988259 25.363078 0.151858 -1.448112 11.972166 0.038056 -0.728027 5.985124 -0.000002 0.000000 -0.000000 0.672568 -2.988259 25.363078 0.151858 -1.448112 11.972169 0.038059 -0.728023 5.985130 -0.000003 -0.000000 0.000002 0.672568 -2.988259 25.363076 0.151857 -1.448113 11.972168 0.038058 -0.728028 5.985124 -0.000002 0.000001 -0.000001 0.672567 -2.988259 25.363078 0.151858 -1.448113 11.972169 0.038058 -0.728027 5.985124 -0.000002 -0.000000 0.000000 -7.907592 16.227466 6.870319 12.823763 -7.606630 -0.332499 -2.483492 0.263780 -5.640982 0.000001 0.000004 0.000001 -0.000000 -0.000000 0.000000 0.239323 -10.681622 -5.092953 19.822256 5.637756 0.210684 -25.135318 -0.936300 3.874405 -0.000004 -0.000001 0.000001 -0.000000 0.000000 0.000000 
-0.040122 212.827118 -0.720297 -4.033181 4.783565 4.935490 4.574772 -0.612295 0.569632 9.837529 -0.656225 2.999172 0.000000 0.000000 0.000000 9.842311 -0.594124 2.990730 -0.552501 1.913019 -5.689793 5.267441 2.253986 -6.652772 0.000000 0.000000 0.000000 -0.217717 14.595752 -11.694877 0.000000 0.000000 0.000000 4.265771 -10.605523 -59.786299 0.000005 -50.764104 0.000003 19.817295 0.066156 -4.103490 -3.500350 23.141810 9.972885 -2.408851 12.775489 10.381864 -3.572551 4.191482 6.966296 0.000000 0.000000 -0.000000 0.080929 1.054715 -8.775000 0.139264 1.380625 -11.520078 0.034900 0.693817 -5.759197 -0.000001 0.000001 -0.000001 0.080636 1.052808 -8.759018 0.139659 1.382514 -11.536055 0.034908 0.693813 -5.759192 -0.000003 0.000001 -0.000000 0.080929 1.054715 -8.775000 0.139265 1.380625 -11.520078 0.034900 0.693819 -5.759195 -0.000004 0.000001 -0.000001 0.683437 5.064136 -8.296776 0.133620 -2.674902 -12.020537 0.034911 0.693817 -5.759189 -0.000001 0.000000 0.000000 1.104816 3.549000 6.940647 0.000000 0.000000 0.000000 -3.653388 10.119990 55.385249 -0.000002 39.770726 -0.000015 0.971876 -7.983115 -7.726943 -7.604783 -2.521701 -16.076754 4.602800 -15.232179 -8.617191 -1.023797 -3.032477 -6.344394 0.000001 0.000000 -0.000003 0.672572 -2.988261 25.363064 0.151858 -1.448115 11.972185 0.038057 -0.728024 5.985122 0.000002 -0.000001 -0.000003 0.672573 -2.988260 25.363069 0.151858 -1.448117 11.972186 0.038061 -0.728023 5.985118 0.000003 0.000001 0.000003 0.672572 -2.988259 25.363064 0.151858 -1.448116 11.972185 0.038057 -0.728025 5.985124 0.000001 -0.000001 -0.000002 0.672572 -2.988261 25.363069 0.151860 -1.448118 11.972185 0.038059 -0.728024 5.985118 0.000002 -0.000001 -0.000000 -8.397892 16.087589 6.937924 13.240543 -7.436462 -0.306172 -2.776951 0.296366 -5.635415 0.000001 -0.000003 -0.000002 0.000000 0.000001 0.000000 -0.108843 -10.663874 -5.074540 19.997814 5.635572 0.216556 -25.364111 -0.948976 3.810344 -0.000005 0.000001 -0.000001 0.000000 0.000000 -0.000001 
-0.023411 212.707687 -0.776806 -3.759494 4.843917 4.877904 4.542414 -0.621417 0.615303 9.789341 -0.654194 2.995627 0.000000 0.000000 0.000000 9.794234 -0.592126 2.986811 -0.544865 1.982231 -5.822373 5.258742 2.411931 -6.675186 0.000000 -0.000001 0.000000 -0.216484 14.635951 -11.728229 0.000000 0.000000 0.000000 4.166839 -10.728386 -59.653663 -0.000001 -51.016609 -0.000001 19.677572 0.328038 -4.160749 -3.500352 23.141794 9.972887 -2.408853 12.775503 10.381873 -3.572560 4.191483 6.966312 0.000000 -0.000000 -0.000001 0.080929 1.054719 -8.775004 0.139269 1.380619 -11.520073 0.034900 0.693823 -5.759194 -0.000004 0.000000 -0.000000 0.080628 1.052808 -8.759022 0.139660 1.382515 -11.536054 0.034899 0.693820 -5.759194 -0.000004 0.000000 -0.000000 0.080929 1.054719 -8.775003 0.139268 1.380621 -11.520073 0.034908 0.693823 -5.759193 -0.000001 -0.000000 0.000000 0.683431 5.064134 -8.296771 0.133625 -2.674908 -12.020553 0.034903 0.693816 -5.759199 0.000001 -0.000000 0.000000 1.100245 3.659956 6.697155 0.000000 0.000000 0.000000 -2.825907 11.105689 54.696138 0.000006 40.467163 -0.000016 -0.149445 -8.609119 -7.429757 -7.604773 -2.521684 -16.076735 4.602798 -15.232177 -8.617212 -1.023796 -3.032483 -6.344357 -0.000001 0.000001 0.000000 0.672564 -2.988253 25.363093 0.151854 -1.448114 11.972155 0.038066 -0.728029 5.985118 0.000000 0.000001 0.000002 0.672564 -2.988253 25.363093 0.151855 -1.448117 11.972153 0.038064 -0.728027 5.985122 -0.000002 0.000000 0.000002 0.672562 -2.988253 25.363100 0.151857 -1.448119 11.972149 0.038069 -0.728031 5.985115 -0.000002 -0.000000 -0.000001 0.672564 -2.988253 25.363093 0.151855 -1.448117 11.972152 0.038067 -0.728030 5.985117 0.000004 -0.000000 -0.000002 -8.932799 15.958520 7.054388 13.782064 -6.970728 -0.280260 -3.164380 0.363931 -5.717259 0.000001 -0.000001 0.000000 0.000000 -0.000000 -0.000000 -0.502880 -10.643157 -5.060717 20.245997 5.617349 0.223282 -25.632821 -0.964740 3.739599 -0.000002 0.000001 -0.000000 -0.000000 0.000000 0.000000 
-0.001876 212.557465 -0.848613 -3.481974 4.935088 4.816530 4.511793 -0.634434 0.661357 9.747390 -0.660639 2.989695 0.000000 0.000000 0.000000 9.752285 -0.598474 2.981114 -0.524613 2.045889 -5.949945 5.185578 2.561491 -6.667637 -0.000002 0.000000 0.000000 -0.217904 14.614125 -11.691989 0.000000 0.000000 0.000000 4.068856 -10.818489 -59.539982 0.000003 -51.290052 0.000016 19.626683 0.508752 -4.295628 -3.500354 23.141801 9.972871 -2.408849 12.775498 10.381893 -3.572554 4.191485 6.966301 -0.000001 0.000001 0.000002 0.080925 1.054707 -8.775020 0.139277 1.380632 -11.520059 0.034897 0.693816 -5.759201 0.000002 -0.000000 -0.000000 0.080627 1.052807 -8.759049 0.139653 1.382527 -11.536037 0.034900 0.693818 -5.759198 0.000000 -0.000001 0.000000 0.080925 1.054707 -8.775020 0.139278 1.380633 -11.520057 0.034895 0.693815 -5.759200 -0.000004 -0.000000 0.000000 0.683440 5.064133 -8.296769 0.133609 -2.674894 -12.020555 0.034899 0.693814 -5.759200 -0.000000 -0.000000 0.000001 1.097558 3.801375 6.436564 0.000000 0.000000 0.000000 -1.977651 12.089232 53.953911 -0.000005 41.267624 0.000021 -1.102685 -9.437438 -6.772082 -7.604779 -2.521700 -16.076769 4.602804 -15.232181 -8.617175 -1.023797 -3.032482 -6.344368 0.000000 -0.000000 0.000002 0.672563 -2.988265 25.363091 0.151861 -1.448120 11.972154 0.038063 -0.728023 5.985139 0.000003 -0.000000 0.000000 0.672564 -2.988265 25.363088 0.151860 -1.448121 11.972151 0.038061 -0.728021 5.985140 0.000000 -0.000000 0.000001 0.672563 -2.988264 25.363091 0.151859 -1.448123 11.972154 0.038064 -0.728022 5.985140 0.000001 -0.000001 -0.000002 0.672563 -2.988265 25.363088 0.151863 -1.448123 11.972150 0.038061 -0.728021 5.985141 -0.000003 -0.000001 -0.000002 -9.504909 15.857290 7.219927 14.470299 -6.128141 -0.253895 -3.636259 0.474188 -5.908605 0.000001 -0.000000 0.000002 -0.000000 0.000002 0.000000 -0.945666 -10.616586 -5.052048 20.579748 5.572091 0.230351 -25.937160 -0.984793 3.666230 0.000000 0.000000 0.000001 0.000000 -0.000000 0.000000 
0.020550 212.376358 -0.940471 -3.217808 5.060909 4.752997 4.485666 -0.652338 0.703435 9.717402 -0.678102 2.980118 0.000000 0.000000 0.000000 9.722182 -0.615610 2.972440 -0.501564 2.101284 -6.065894 5.038041 2.694871 -6.618395 0.000000 -0.000000 -0.000001 -0.223128 14.527594 -11.574561 0.000000 0.000000 0.000000 3.980785 -10.891334 -59.425405 -0.000004 -51.592213 -0.000001 19.649104 0.595739 -4.537388 -3.500362 23.141808 9.972910 -2.408841 12.775500 10.381854 -3.572557 4.191481 6.966301 0.000002 -0.000001 -0.000003 0.080924 1.054710 -8.775009 0.139263 1.380624 -11.520066 0.034895 0.693825 -5.759190 -0.000000 0.000000 -0.000001 0.080633 1.052813 -8.759029 0.139662 1.382517 -11.536030 0.034904 0.693826 -5.759201 -0.000000 -0.000001 0.000000 0.080924 1.054710 -8.775008 0.139263 1.380625 -11.520068 0.034901 0.693824 -5.759185 0.000001 -0.000000 0.000001 0.683435 5.064133 -8.296770 0.133616 -2.674906 -12.020553 0.034908 0.693819 -5.759190 -0.000004 -0.000000 -0.000000 1.096465 3.968963 6.163312 0.000000 0.000000 0.000000 -1.142313 13.060934 53.184497 0.000003 42.165667 0.000012 -1.727436 -10.401734 -5.825571 -7.604779 -2.521693 -16.076764 4.602802 -15.232181 -8.617177 -1.023795 -3.032474 -6.344353 0.000001 -0.000000 0.000002 0.672563 -2.988255 25.363088 0.151856 -1.448121 11.972166 0.038056 -0.728023 5.985122 0.000002 0.000000 -0.000000 0.672563 -2.988254 25.363086 0.151855 -1.448120 11.972166 0.038051 -0.728021 5.985128 0.000001 0.000002 0.000001 0.672563 -2.988256 25.363076 0.151853 -1.448118 11.972174 0.038056 -0.728023 5.985123 -0.000003 -0.000000 0.000000 0.672563 -2.988255 25.363086 0.151854 -1.448121 11.972165 0.038055 -0.728021 5.985123 0.000001 0.000000 0.000002 -10.101735 15.797555 7.409830 15.316884 -4.938730 -0.224301 -4.166268 0.623221 -6.193231 -0.000001 0.000011 0.000002 -0.000000 0.000001 0.000000 -1.423371 -10.582479 -5.047709 21.001312 5.487870 0.237041 -26.271293 -1.011522 3.599308 0.000002 0.000000 -0.000000 -0.000001 -0.000000 0.000000 
